# xmcd
#
# Track frame offsets: 
#        150
#        3168
#        21542
#        40637
#        59427
#        77518
#        99869
#        110835
#        125323
#        147203
#        166725
#        186219
#
# Disc length: 2703 seconds
#
# Revision: 0
# Processed by: cddbd v1.5.2PL0 Copyright (c) Steve Scherf et al.
# Submitted via: ExactAudioCopyFreeDBPlugin 1.0
#
DISCID=900a8d0c
DTITLE=Various Artist - Nova 25 ans - 1991
DYEAR=1991
DGENRE=
TTITLE0=Jingle
TTITLE1=Salamat - Mambo El Soudani
TTITLE2=Young Disciples - Apparently Nothin'
TTITLE3=Zap Mama - Take Me Coco
TTITLE4=Yellowman - Hit The Road Jack
TTITLE5=Adonis - No Way Back
TTITLE6=Robert Palmer - Hey Julia
TTITLE7=Cesaria Evora - Cabo Verde
TTITLE8=Les Négresses Vertes - Face A La Mer
TTITLE9=Ali Hassan Kuban - Habibi
TTITLE10=Galliano - Stoned Again
TTITLE11=Charles Wright and The Watts 103rd Street Rythm Band - Light My
TTITLE11=Fire
EXTD=
EXTT0=
EXTT1=
EXTT2=
EXTT3=
EXTT4=
EXTT5=
EXTT6=
EXTT7=
EXTT8=
EXTT9=
EXTT10=
EXTT11=
PLAYORDER=
